<svg version="1.2" xmlns="http://www.w3.org/2000/svg" viewBox="0 0 1024 1024" width="1024" height="1024">
	<style>
		.s0 { fill: #4c00ff } 
		.s1 { fill: #fdd621 } 
	</style>
	<g id="Background">
		<path id="Path 1" class="s0" d="m266 262.1c-4.13 1.09-9.7 3.2-12.38 4.69-2.69 1.49-7.3 4.96-10.25 7.71-2.95 2.75-6.95 7.7-8.9 11-1.95 3.3-4.44 8.92-5.53 12.5-1.37 4.5-1.97 9.27-1.94 15.5 0.03 6.99 0.6 10.57 2.54 16 1.38 3.85 3.95 9.21 5.73 11.91 1.78 2.7 5.73 7.2 8.78 10 3.06 2.8 7.78 6.3 10.5 7.78 2.72 1.48 7.65 3.39 10.95 4.25 3.3 0.86 9.82 1.57 14.5 1.57 4.87 0.01 10.85-0.68 14-1.6 3.02-0.88 8.19-3.02 11.49-4.76 3.29-1.73 8.46-5.63 11.5-8.66 3.03-3.04 6.92-8.21 8.64-11.5 1.72-3.3 3.95-8.47 4.97-11.49 1.24-3.71 1.82-8.27 1.78-14-0.03-5.63-0.76-10.86-2.16-15.5-1.16-3.85-3.86-9.7-5.99-13-2.13-3.3-6.12-8.03-8.88-10.5-2.76-2.48-7.23-5.72-9.93-7.2-2.71-1.49-8.52-3.63-12.92-4.77-4.4-1.13-10.48-2.02-13.5-1.99-3.02 0.04-8.87 0.96-13 2.06zm186.5 110.79c-5.5 1.01-12.93 2.65-16.5 3.65-3.57 1-10.32 3.34-15 5.21-4.68 1.87-13.23 5.84-19 8.84-5.77 2.99-14.55 8.44-19.5 12.12-5.08 3.77-19.04 16.73-32.03 29.74-12.67 12.68-43.51 43.75-68.54 69.05-29.74 30.06-47.97 49.29-52.61 55.5-3.9 5.22-9.43 13.33-12.28 18-2.85 4.67-7.01 12.33-9.24 17-2.24 4.67-5.79 13.67-7.89 20-2.11 6.33-4.62 15.77-5.59 21-1.3 7.03-1.76 14.84-1.79 30-0.02 17.33 0.31 22.2 2.2 31.5 1.22 6.05 3.85 16.17 5.83 22.5 1.98 6.33 6.23 16.9 9.43 23.5 3.21 6.6 8.24 15.46 11.17 19.68 2.94 4.23 8.72 11.6 12.84 16.39 4.13 4.79 11.32 11.92 16 15.85 4.68 3.92 11.2 8.98 14.5 11.24 3.3 2.25 10.5 6.36 16 9.13 5.5 2.77 12.48 6.03 15.5 7.25 3.02 1.21 9.77 3.45 15 4.97 5.23 1.52 14 3.58 19.5 4.57 7.29 1.32 14.88 1.8 28 1.78 13.9-0.02 20.62-0.51 29.5-2.14 6.32-1.16 15.77-3.49 21-5.19 5.23-1.69 14-5.29 19.5-8 5.5-2.71 14.95-8.15 21-12.09 10.42-6.78 15.38-11.54 93.72-89.8 45.49-45.45 82.73-82.98 82.75-83.39 0.02-0.41-3.23 0.63-7.22 2.32-3.99 1.69-11.08 4.18-15.75 5.54-4.67 1.36-12.55 3.09-17.5 3.85-4.95 0.76-12.83 1.68-17.5 2.04-4.67 0.36-13.9 0.15-20.5-0.48-6.6-0.62-16.73-2.19-22.5-3.47-5.77-1.28-14.44-3.84-19.26-5.69l-8.76-3.36c-87.19 87.01-96.69 95.98-102.48 99.33-3.85 2.23-10.6 5.27-15 6.75-6.44 2.18-10.44 2.8-20.5 3.19-10.52 0.41-13.85 0.15-21-1.64-4.67-1.16-11.65-3.67-15.5-5.57-3.85-1.89-10.04-5.94-13.75-9-3.71-3.06-9.01-8.37-11.77-11.81-2.76-3.44-7.02-10.3-9.46-15.25-2.44-4.95-5.15-11.7-6.02-15-0.87-3.3-1.86-9.6-2.19-14-0.37-4.75-0.11-11.25 0.64-16 0.7-4.4 2.58-11.6 4.19-16 1.61-4.4 5.04-11.38 7.61-15.5 3.77-6.05 17.25-20.18 69.6-73 35.71-36.02 67.68-67.69 71.04-70.36 3.36-2.67 9.26-6.37 13.11-8.21 3.85-1.83 11.05-4.32 16-5.51 6.52-1.58 12.17-2.18 20.5-2.2 9.6-0.01 12.94 0.42 20.25 2.63 4.81 1.46 11.11 3.84 14 5.29 2.89 1.45 7.73 4.31 10.75 6.36 3.02 2.05 8.54 6.94 12.25 10.87 3.71 3.92 8.79 10.62 11.28 14.88 2.48 4.26 5.67 11.35 7.07 15.75 1.48 4.64 2.77 11.57 3.08 16.5 0.3 4.67 0.08 10.97-0.48 14-0.56 3.02-0.82 5.72-0.57 6 0.25 0.27 4.15-0.27 8.66-1.22 4.52-0.94 10.69-2.75 13.71-4.02 3.02-1.27 7.52-3.37 10-4.66 2.79-1.45 13.79-11.57 29-26.69l24.5-24.36c-5.16-15.15-8.91-24.05-11.67-29.55-2.76-5.5-7.79-14.04-11.18-18.98-3.38-4.94-10.65-13.66-16.15-19.38-5.5-5.72-13.6-13.29-18-16.83-4.4-3.54-11.6-8.62-16-11.3-4.4-2.68-12.27-6.89-17.5-9.35-5.23-2.47-13.33-5.83-18-7.46-4.67-1.64-13.9-4.23-20.5-5.75-10.72-2.49-14.25-2.81-33-3.09-17.04-0.25-22.88 0.04-31 1.53z"/>
		<path id="Path 2" class="s1" d="m657 180.64c-1.38 0.2-5.88 0.85-10 1.44-4.13 0.59-11.1 1.98-15.5 3.08-4.4 1.1-12.05 3.57-17 5.48-4.95 1.91-13.05 5.54-18 8.05-4.95 2.52-11.92 6.66-15.48 9.19-3.57 2.54-9.87 7.46-14 10.94-4.14 3.47-31.31 30.47-60.39 60-29.07 29.52-56.76 58.18-61.53 63.68-4.77 5.5-10.94 13.38-13.72 17.5-2.78 4.13-6.91 10.65-9.2 14.5-2.28 3.85-4.16 7.34-4.17 7.75 0 0.41 2.8-0.38 6.24-1.77 3.44-1.38 10.75-3.61 16.25-4.96 5.5-1.34 13.82-2.97 18.5-3.61 5.25-0.73 15.58-0.99 27-0.7 15.52 0.41 20.43 0.93 30.5 3.26 6.6 1.52 13.69 3.39 15.75 4.15l3.75 1.38c73.11-73.74 84.32-84.41 90.5-88.51 4.4-2.91 10.81-6.46 14.25-7.89 3.44-1.43 9.29-3.35 13-4.26 4.41-1.09 10.73-1.65 18.25-1.62 8.53 0.04 13.57 0.61 19.5 2.22 4.4 1.19 12.05 4.25 17 6.81 7.16 3.71 10.85 6.5 18.04 13.7 6.87 6.88 10.02 10.97 13.15 17.05 2.26 4.4 5.11 11.15 6.32 15 1.58 5 2.36 10.57 2.74 19.5 0.41 9.74 0.14 14.26-1.22 20.5-0.97 4.4-2.97 10.7-4.45 14-1.48 3.3-4.88 9.38-7.55 13.5-3.59 5.54-15.22 17.96-44.49 47.5-21.81 22-52 52.2-67.09 67.11-16.87 16.66-29.18 28.01-31.95 29.47-2.48 1.3-6.98 3.4-10 4.67-3.02 1.27-9.1 3.03-13.5 3.91-5.68 1.15-10.61 1.44-17 1.02-4.95-0.32-12.15-1.56-16-2.75-3.85-1.19-9.7-3.51-13-5.16-3.3-1.65-8.7-4.92-12-7.27-3.3-2.35-8.51-6.91-11.58-10.13-3.07-3.23-7.21-8.35-9.22-11.37-2-3.02-4.74-8.2-6.08-11.5-1.35-3.3-3.22-9.82-4.17-14.5-1.25-6.17-1.54-10.69-1.07-16.5 0.35-4.4 0.89-9.12 1.19-10.5 0.54-2.45 0.44-2.49-4.76-2.16-2.92 0.18-9.13 1.22-13.81 2.29-4.68 1.08-11.65 3.46-15.5 5.3-3.85 1.84-10.37 6.04-14.5 9.33-4.12 3.29-13.91 12.57-21.75 20.61-7.84 8.05-14.25 15.3-14.25 16.13 0 0.83 1.63 6.11 3.61 11.75 1.99 5.64 5.29 13.85 7.34 18.25 2.05 4.4 7.34 13.4 11.75 20 4.95 7.41 12.19 16.36 18.91 23.38 5.99 6.26 14.27 14.1 18.39 17.41 4.13 3.32 10.65 8.06 14.5 10.53 3.85 2.48 11.27 6.63 16.5 9.23 5.23 2.59 13.77 6.39 19 8.44 5.23 2.05 14.23 4.78 20 6.06 5.77 1.29 15.9 2.86 22.5 3.49 8.97 0.86 15.16 0.86 24.5 0.02 6.88-0.62 15.88-1.82 20-2.66 4.13-0.84 12.23-3.13 18-5.09 5.77-1.96 14.55-5.51 19.5-7.88 4.95-2.37 12.38-6.45 16.5-9.06 4.13-2.61 11.1-7.54 15.5-10.96 4.4-3.43 38.39-36.76 75.53-74.07 47.24-47.46 69.23-70.24 73.18-75.84 3.11-4.4 7.95-11.82 10.75-16.5 2.81-4.67 7.09-13.23 9.51-19 2.42-5.77 5.57-14.55 7-19.5 1.43-4.95 3.53-14.4 4.67-21 1.8-10.37 2.01-14.71 1.56-32-0.42-16.28-0.98-22.14-3.02-31.5-1.39-6.32-3.66-15.1-5.05-19.5-1.4-4.4-5.7-14.3-9.56-22-4.38-8.74-10.1-18.13-15.23-25-4.52-6.05-12.07-15-16.78-19.88-4.71-4.89-11.93-11.46-16.06-14.61-4.13-3.15-11.33-8.21-16-11.25-4.67-3.03-11.65-7.09-15.5-9.01-3.85-1.93-11.27-5.08-16.5-7.01-5.23-1.93-14.45-4.67-20.5-6.08-6.05-1.41-15.39-3.03-20.75-3.61-5.36-0.58-14.14-0.99-19.5-0.91-5.36 0.07-10.88 0.3-12.25 0.5zm72 471.3c-2.48 0.43-6.75 1.51-9.5 2.39-2.75 0.89-7.7 3.35-11 5.48-3.3 2.12-7.82 5.85-10.05 8.28-2.23 2.42-5.23 6.43-6.68 8.91-1.44 2.48-3.59 7.42-4.78 11-1.57 4.73-2.16 8.95-2.16 15.5-0.01 7.08 0.54 10.6 2.58 16.5 1.42 4.12 4.27 9.93 6.34 12.9 2.06 2.98 5.59 7.03 7.84 9 2.24 1.98 6.74 5.03 10 6.79 3.25 1.75 8.61 3.89 11.91 4.75 3.3 0.86 9.15 1.57 13 1.57 3.85 0 9.7-0.69 13-1.54 3.3-0.84 8.48-2.72 11.5-4.17 3.33-1.6 8.27-5.44 12.52-9.72 3.86-3.9 8.22-9.33 9.69-12.08 1.46-2.75 3.37-7.7 4.23-11 0.86-3.3 1.57-9.15 1.57-13 0-3.85-0.71-9.7-1.57-13-0.86-3.3-3-8.66-4.75-11.91-1.76-3.26-4.81-7.76-6.79-10-1.97-2.25-6.02-5.78-9-7.84-2.97-2.07-8.55-4.84-12.4-6.16-3.85-1.33-10.15-2.64-14-2.92-3.85-0.28-9.02-0.16-11.5 0.27z"/>
	</g>
</svg>